<svg xmlns="http://www.w3.org/2000/svg" width="1280" height="720" viewBox="0 0 1280 720">
<defs>
  <linearGradient id="sky" x1="0" y1="0" x2="0" y2="1">
    <stop offset="0%" stop-color="#1b0a18"/>
    <stop offset="100%" stop-color="#0a0f19"/>
  </linearGradient>
  <radialGradient id="vig" cx="50%" cy="48%" r="72%">
    <stop offset="55%" stop-color="#000" stop-opacity="0"/>
    <stop offset="100%" stop-color="#000" stop-opacity="0.72"/>
  </radialGradient>
  <pattern id="scan" width="4" height="4" patternUnits="userSpaceOnUse">
    <rect width="4" height="1" fill="#00f0ff" opacity="0.05"/>
  </pattern>
  <filter id="blur"><feGaussianBlur stdDeviation="64"/></filter>
  <filter id="blurS"><feGaussianBlur stdDeviation="6"/></filter>
  <filter id="grain">
    <feTurbulence type="fractalNoise" baseFrequency="0.9" numOctaves="3" stitchTiles="stitch"/>
    <feColorMatrix type="saturate" values="0"/>
  </filter>
</defs>
<rect width="1280" height="720" fill="url(#sky)"/><ellipse cx="847" cy="234" rx="538" ry="216" fill="#ff2d55" opacity="0.16" filter="url(#blur)"/><rect x="-40.0" y="205.3" width="128.8" height="268.0" fill="#0d1a26" opacity="0.65"/><rect x="-32.0" y="373.3" width="5" height="8" fill="#ff9d5c" opacity="0.51"/><rect x="-14.0" y="347.3" width="5" height="8" fill="#ff9d5c" opacity="0.40"/><rect x="-14.0" y="399.3" width="5" height="8" fill="#ff9d5c" opacity="0.73"/><rect x="4.0" y="347.3" width="5" height="8" fill="#7df9ff" opacity="0.43"/><rect x="40.0" y="217.3" width="5" height="8" fill="#7df9ff" opacity="0.46"/><rect x="40.0" y="321.3" width="5" height="8" fill="#7df9ff" opacity="0.53"/><rect x="76.0" y="243.3" width="5" height="8" fill="#7df9ff" opacity="0.55"/><rect x="116.5" y="168.3" width="135.1" height="305.0" fill="#0d1a26" opacity="0.65"/><rect x="124.5" y="180.3" width="5" height="8" fill="#7df9ff" opacity="0.34"/><rect x="124.5" y="258.3" width="5" height="8" fill="#7df9ff" opacity="0.80"/><rect x="124.5" y="310.3" width="5" height="8" fill="#7df9ff" opacity="0.32"/><rect x="160.5" y="206.3" width="5" height="8" fill="#ff9d5c" opacity="0.51"/><rect x="160.5" y="284.3" width="5" height="8" fill="#7df9ff" opacity="0.66"/><rect x="160.5" y="362.3" width="5" height="8" fill="#7df9ff" opacity="0.69"/><rect x="178.5" y="180.3" width="5" height="8" fill="#ff9d5c" opacity="0.57"/><rect x="178.5" y="258.3" width="5" height="8" fill="#ff9d5c" opacity="0.79"/><rect x="178.5" y="284.3" width="5" height="8" fill="#7df9ff" opacity="0.36"/><rect x="178.5" y="362.3" width="5" height="8" fill="#7df9ff" opacity="0.52"/><rect x="178.5" y="414.3" width="5" height="8" fill="#7df9ff" opacity="0.39"/><rect x="196.5" y="232.3" width="5" height="8" fill="#7df9ff" opacity="0.64"/><rect x="196.5" y="258.3" width="5" height="8" fill="#ff9d5c" opacity="0.47"/><rect x="196.5" y="284.3" width="5" height="8" fill="#7df9ff" opacity="0.38"/><rect x="196.5" y="336.3" width="5" height="8" fill="#7df9ff" opacity="0.33"/><rect x="214.5" y="232.3" width="5" height="8" fill="#7df9ff" opacity="0.25"/><rect x="214.5" y="284.3" width="5" height="8" fill="#7df9ff" opacity="0.50"/><rect x="214.5" y="336.3" width="5" height="8" fill="#ff9d5c" opacity="0.51"/><rect x="214.5" y="362.3" width="5" height="8" fill="#7df9ff" opacity="0.77"/><rect x="232.5" y="180.3" width="5" height="8" fill="#ff9d5c" opacity="0.56"/><rect x="232.5" y="284.3" width="5" height="8" fill="#ff9d5c" opacity="0.43"/><rect x="232.5" y="362.3" width="5" height="8" fill="#7df9ff" opacity="0.25"/><rect x="273.1" y="73.4" width="75.7" height="399.9" fill="#0d1a26" opacity="0.65"/><rect x="281.1" y="137.4" width="5" height="8" fill="#ff9d5c" opacity="0.41"/><rect x="281.1" y="189.4" width="5" height="8" fill="#7df9ff" opacity="0.27"/><rect x="281.1" y="371.4" width="5" height="8" fill="#ff9d5c" opacity="0.64"/><rect x="299.1" y="241.4" width="5" height="8" fill="#ff9d5c" opacity="0.44"/><rect x="317.1" y="111.4" width="5" height="8" fill="#7df9ff" opacity="0.65"/><rect x="335.1" y="163.4" width="5" height="8" fill="#7df9ff" opacity="0.28"/><rect x="335.1" y="241.4" width="5" height="8" fill="#7df9ff" opacity="0.25"/><rect x="335.1" y="319.4" width="5" height="8" fill="#7df9ff" opacity="0.76"/><rect x="356.5" y="113.8" width="72.8" height="359.5" fill="#0d1a26" opacity="0.65"/><rect x="364.5" y="177.8" width="5" height="8" fill="#ff9d5c" opacity="0.79"/><rect x="364.5" y="255.8" width="5" height="8" fill="#7df9ff" opacity="0.73"/><rect x="364.5" y="307.8" width="5" height="8" fill="#ff9d5c" opacity="0.39"/><rect x="400.5" y="151.8" width="5" height="8" fill="#7df9ff" opacity="0.80"/><rect x="400.5" y="411.8" width="5" height="8" fill="#7df9ff" opacity="0.46"/><rect x="418.5" y="177.8" width="5" height="8" fill="#ff9d5c" opacity="0.53"/><rect x="418.5" y="307.8" width="5" height="8" fill="#7df9ff" opacity="0.74"/><rect x="436.8" y="344.6" width="137.0" height="128.7" fill="#0d1a26" opacity="0.65"/><rect x="462.8" y="356.6" width="5" height="8" fill="#7df9ff" opacity="0.59"/><rect x="462.8" y="382.6" width="5" height="8" fill="#7df9ff" opacity="0.55"/><rect x="480.8" y="408.6" width="5" height="8" fill="#ff9d5c" opacity="0.85"/><rect x="587.3" y="178.5" width="157.4" height="294.8" fill="#0d1a26" opacity="0.65"/><rect x="595.3" y="372.5" width="5" height="8" fill="#ff9d5c" opacity="0.25"/><rect x="613.3" y="216.5" width="5" height="8" fill="#7df9ff" opacity="0.76"/><rect x="631.3" y="190.5" width="5" height="8" fill="#ff9d5c" opacity="0.72"/><rect x="631.3" y="242.5" width="5" height="8" fill="#7df9ff" opacity="0.31"/><rect x="631.3" y="268.5" width="5" height="8" fill="#ff9d5c" opacity="0.32"/><rect x="649.3" y="346.5" width="5" height="8" fill="#7df9ff" opacity="0.37"/><rect x="667.3" y="216.5" width="5" height="8" fill="#7df9ff" opacity="0.40"/><rect x="667.3" y="242.5" width="5" height="8" fill="#7df9ff" opacity="0.70"/><rect x="667.3" y="294.5" width="5" height="8" fill="#7df9ff" opacity="0.46"/><rect x="667.3" y="320.5" width="5" height="8" fill="#7df9ff" opacity="0.54"/><rect x="667.3" y="372.5" width="5" height="8" fill="#7df9ff" opacity="0.52"/><rect x="685.3" y="346.5" width="5" height="8" fill="#7df9ff" opacity="0.83"/><rect x="685.3" y="372.5" width="5" height="8" fill="#7df9ff" opacity="0.37"/><rect x="703.3" y="320.5" width="5" height="8" fill="#7df9ff" opacity="0.75"/><rect x="721.3" y="346.5" width="5" height="8" fill="#7df9ff" opacity="0.81"/><rect x="721.3" y="372.5" width="5" height="8" fill="#7df9ff" opacity="0.27"/><rect x="764.4" y="265.9" width="115.3" height="207.4" fill="#0d1a26" opacity="0.65"/><rect x="790.4" y="277.9" width="5" height="8" fill="#7df9ff" opacity="0.30"/><rect x="808.4" y="277.9" width="5" height="8" fill="#ff9d5c" opacity="0.26"/><rect x="808.4" y="407.9" width="5" height="8" fill="#7df9ff" opacity="0.69"/><rect x="844.4" y="277.9" width="5" height="8" fill="#7df9ff" opacity="0.43"/><rect x="844.4" y="303.9" width="5" height="8" fill="#7df9ff" opacity="0.57"/><rect x="844.4" y="381.9" width="5" height="8" fill="#ff9d5c" opacity="0.71"/><rect x="891.0" y="161.1" width="89.9" height="312.2" fill="#0d1a26" opacity="0.65"/><rect x="917.0" y="407.1" width="5" height="8" fill="#7df9ff" opacity="0.55"/><rect x="935.0" y="199.1" width="5" height="8" fill="#7df9ff" opacity="0.44"/><rect x="935.0" y="225.1" width="5" height="8" fill="#7df9ff" opacity="0.53"/><rect x="935.0" y="355.1" width="5" height="8" fill="#7df9ff" opacity="0.78"/><rect x="953.0" y="355.1" width="5" height="8" fill="#7df9ff" opacity="0.57"/><rect x="1004.6" y="183.4" width="146.3" height="289.9" fill="#0d1a26" opacity="0.65"/><rect x="1012.6" y="273.4" width="5" height="8" fill="#ff9d5c" opacity="0.28"/><rect x="1030.6" y="221.4" width="5" height="8" fill="#ff9d5c" opacity="0.31"/><rect x="1030.6" y="299.4" width="5" height="8" fill="#7df9ff" opacity="0.43"/><rect x="1030.6" y="377.4" width="5" height="8" fill="#ff9d5c" opacity="0.54"/><rect x="1048.6" y="273.4" width="5" height="8" fill="#7df9ff" opacity="0.78"/><rect x="1066.6" y="273.4" width="5" height="8" fill="#7df9ff" opacity="0.69"/><rect x="1066.6" y="299.4" width="5" height="8" fill="#7df9ff" opacity="0.60"/><rect x="1084.6" y="273.4" width="5" height="8" fill="#ff9d5c" opacity="0.62"/><rect x="1084.6" y="325.4" width="5" height="8" fill="#7df9ff" opacity="0.75"/><rect x="1102.6" y="299.4" width="5" height="8" fill="#ff9d5c" opacity="0.78"/><rect x="1120.6" y="325.4" width="5" height="8" fill="#ff9d5c" opacity="0.70"/><rect x="1120.6" y="403.4" width="5" height="8" fill="#ff9d5c" opacity="0.36"/><rect x="1138.6" y="195.4" width="5" height="8" fill="#7df9ff" opacity="0.37"/><rect x="1138.6" y="247.4" width="5" height="8" fill="#7df9ff" opacity="0.73"/><rect x="1138.6" y="299.4" width="5" height="8" fill="#7df9ff" opacity="0.47"/><rect x="1138.6" y="325.4" width="5" height="8" fill="#7df9ff" opacity="0.63"/><rect x="1138.6" y="377.4" width="5" height="8" fill="#7df9ff" opacity="0.82"/><rect x="1138.6" y="403.4" width="5" height="8" fill="#ff9d5c" opacity="0.77"/><rect x="1171.4" y="314.4" width="57.9" height="158.9" fill="#0d1a26" opacity="0.65"/><rect x="1197.4" y="378.4" width="5" height="8" fill="#7df9ff" opacity="0.44"/><rect x="1197.4" y="404.4" width="5" height="8" fill="#ff9d5c" opacity="0.65"/><rect x="1215.4" y="404.4" width="5" height="8" fill="#ff9d5c" opacity="0.82"/><rect x="1257.2" y="245.5" width="140.7" height="227.8" fill="#0d1a26" opacity="0.65"/><rect x="1283.2" y="257.5" width="5" height="8" fill="#ff9d5c" opacity="0.65"/><rect x="1283.2" y="309.5" width="5" height="8" fill="#ff9d5c" opacity="0.36"/><rect x="1283.2" y="361.5" width="5" height="8" fill="#ff9d5c" opacity="0.46"/><rect x="1283.2" y="387.5" width="5" height="8" fill="#7df9ff" opacity="0.30"/><rect x="1301.2" y="309.5" width="5" height="8" fill="#7df9ff" opacity="0.47"/><rect x="1301.2" y="335.5" width="5" height="8" fill="#7df9ff" opacity="0.65"/><rect x="1319.2" y="413.5" width="5" height="8" fill="#7df9ff" opacity="0.51"/><rect x="1337.2" y="309.5" width="5" height="8" fill="#7df9ff" opacity="0.83"/><rect x="1337.2" y="361.5" width="5" height="8" fill="#7df9ff" opacity="0.60"/><rect x="1337.2" y="387.5" width="5" height="8" fill="#7df9ff" opacity="0.40"/><rect x="1355.2" y="361.5" width="5" height="8" fill="#7df9ff" opacity="0.72"/><rect x="1355.2" y="413.5" width="5" height="8" fill="#7df9ff" opacity="0.64"/><rect x="1373.2" y="283.5" width="5" height="8" fill="#ff9d5c" opacity="0.43"/><rect x="-40.0" y="229.5" width="105.2" height="281.8" fill="#08111a" opacity="0.85"/><rect x="-32.0" y="319.5" width="5" height="8" fill="#7df9ff" opacity="0.85"/><rect x="-14.0" y="449.5" width="5" height="8" fill="#ff9d5c" opacity="0.28"/><rect x="4.0" y="423.5" width="5" height="8" fill="#ff9d5c" opacity="0.73"/><rect x="4.0" y="449.5" width="5" height="8" fill="#7df9ff" opacity="0.29"/><rect x="22.0" y="371.5" width="5" height="8" fill="#7df9ff" opacity="0.45"/><rect x="22.0" y="423.5" width="5" height="8" fill="#ff9d5c" opacity="0.64"/><rect x="40.0" y="397.5" width="5" height="8" fill="#7df9ff" opacity="0.67"/><rect x="40.0" y="449.5" width="5" height="8" fill="#ff9d5c" opacity="0.75"/><rect x="79.5" y="204.3" width="148.6" height="307.0" fill="#08111a" opacity="0.85"/><rect x="87.5" y="294.3" width="5" height="8" fill="#ff9d5c" opacity="0.51"/><rect x="87.5" y="320.3" width="5" height="8" fill="#ff9d5c" opacity="0.63"/><rect x="87.5" y="346.3" width="5" height="8" fill="#ff9d5c" opacity="0.51"/><rect x="87.5" y="424.3" width="5" height="8" fill="#ff9d5c" opacity="0.40"/><rect x="87.5" y="450.3" width="5" height="8" fill="#ff9d5c" opacity="0.62"/><rect x="105.5" y="268.3" width="5" height="8" fill="#7df9ff" opacity="0.78"/><rect x="123.5" y="294.3" width="5" height="8" fill="#7df9ff" opacity="0.60"/><rect x="123.5" y="398.3" width="5" height="8" fill="#7df9ff" opacity="0.39"/><rect x="141.5" y="424.3" width="5" height="8" fill="#7df9ff" opacity="0.32"/><rect x="159.5" y="294.3" width="5" height="8" fill="#7df9ff" opacity="0.48"/><rect x="159.5" y="372.3" width="5" height="8" fill="#ff9d5c" opacity="0.54"/><rect x="177.5" y="346.3" width="5" height="8" fill="#ff9d5c" opacity="0.34"/><rect x="177.5" y="424.3" width="5" height="8" fill="#7df9ff" opacity="0.71"/><rect x="195.5" y="294.3" width="5" height="8" fill="#7df9ff" opacity="0.47"/><rect x="234.1" y="325.0" width="124.1" height="186.3" fill="#08111a" opacity="0.85"/><rect x="242.1" y="389.0" width="5" height="8" fill="#ff9d5c" opacity="0.51"/><rect x="242.1" y="415.0" width="5" height="8" fill="#7df9ff" opacity="0.49"/><rect x="260.1" y="363.0" width="5" height="8" fill="#ff9d5c" opacity="0.66"/><rect x="278.1" y="337.0" width="5" height="8" fill="#7df9ff" opacity="0.48"/><rect x="296.1" y="337.0" width="5" height="8" fill="#7df9ff" opacity="0.62"/><rect x="314.1" y="441.0" width="5" height="8" fill="#ff9d5c" opacity="0.41"/><rect x="368.3" y="256.2" width="153.9" height="255.2" fill="#08111a" opacity="0.85"/><rect x="376.3" y="294.2" width="5" height="8" fill="#ff9d5c" opacity="0.49"/><rect x="376.3" y="424.2" width="5" height="8" fill="#ff9d5c" opacity="0.39"/><rect x="394.3" y="372.2" width="5" height="8" fill="#7df9ff" opacity="0.58"/><rect x="412.3" y="372.2" width="5" height="8" fill="#7df9ff" opacity="0.76"/><rect x="412.3" y="398.2" width="5" height="8" fill="#7df9ff" opacity="0.64"/><rect x="430.3" y="424.2" width="5" height="8" fill="#ff9d5c" opacity="0.61"/><rect x="448.3" y="320.2" width="5" height="8" fill="#7df9ff" opacity="0.26"/><rect x="448.3" y="398.2" width="5" height="8" fill="#7df9ff" opacity="0.82"/><rect x="466.3" y="320.2" width="5" height="8" fill="#7df9ff" opacity="0.32"/><rect x="484.3" y="346.2" width="5" height="8" fill="#7df9ff" opacity="0.83"/><rect x="484.3" y="424.2" width="5" height="8" fill="#7df9ff" opacity="0.77"/><rect x="502.3" y="268.2" width="5" height="8" fill="#7df9ff" opacity="0.52"/><rect x="502.3" y="320.2" width="5" height="8" fill="#7df9ff" opacity="0.53"/><rect x="502.3" y="450.2" width="5" height="8" fill="#7df9ff" opacity="0.25"/><rect x="540.7" y="113.9" width="57.4" height="397.4" fill="#08111a" opacity="0.85"/><rect x="548.7" y="359.9" width="5" height="8" fill="#7df9ff" opacity="0.54"/><rect x="548.7" y="437.9" width="5" height="8" fill="#7df9ff" opacity="0.62"/><rect x="566.7" y="307.9" width="5" height="8" fill="#ff9d5c" opacity="0.33"/><rect x="566.7" y="437.9" width="5" height="8" fill="#ff9d5c" opacity="0.83"/><rect x="619.1" y="144.1" width="123.6" height="367.2" fill="#08111a" opacity="0.85"/><rect x="627.1" y="156.1" width="5" height="8" fill="#7df9ff" opacity="0.55"/><rect x="627.1" y="286.1" width="5" height="8" fill="#ff9d5c" opacity="0.77"/><rect x="645.1" y="364.1" width="5" height="8" fill="#ff9d5c" opacity="0.80"/><rect x="681.1" y="156.1" width="5" height="8" fill="#ff9d5c" opacity="0.26"/><rect x="681.1" y="208.1" width="5" height="8" fill="#7df9ff" opacity="0.75"/><rect x="681.1" y="338.1" width="5" height="8" fill="#ff9d5c" opacity="0.34"/><rect x="717.1" y="182.1" width="5" height="8" fill="#7df9ff" opacity="0.57"/><rect x="717.1" y="286.1" width="5" height="8" fill="#7df9ff" opacity="0.51"/><rect x="717.1" y="312.1" width="5" height="8" fill="#ff9d5c" opacity="0.26"/><rect x="717.1" y="390.1" width="5" height="8" fill="#ff9d5c" opacity="0.65"/><rect x="751.4" y="300.3" width="74.9" height="211.0" fill="#08111a" opacity="0.85"/><rect x="777.4" y="390.3" width="5" height="8" fill="#ff9d5c" opacity="0.50"/><rect x="777.4" y="416.3" width="5" height="8" fill="#7df9ff" opacity="0.25"/><rect x="777.4" y="442.3" width="5" height="8" fill="#ff9d5c" opacity="0.73"/><rect x="795.4" y="312.3" width="5" height="8" fill="#ff9d5c" opacity="0.63"/><rect x="795.4" y="364.3" width="5" height="8" fill="#ff9d5c" opacity="0.57"/><rect x="847.0" y="335.1" width="110.2" height="176.2" fill="#08111a" opacity="0.85"/><rect x="855.0" y="425.1" width="5" height="8" fill="#ff9d5c" opacity="0.37"/><rect x="855.0" y="451.1" width="5" height="8" fill="#ff9d5c" opacity="0.44"/><rect x="873.0" y="451.1" width="5" height="8" fill="#7df9ff" opacity="0.30"/><rect x="909.0" y="373.1" width="5" height="8" fill="#ff9d5c" opacity="0.51"/><rect x="909.0" y="451.1" width="5" height="8" fill="#7df9ff" opacity="0.79"/><rect x="927.0" y="451.1" width="5" height="8" fill="#7df9ff" opacity="0.70"/><rect x="945.0" y="347.1" width="5" height="8" fill="#7df9ff" opacity="0.45"/><rect x="945.0" y="373.1" width="5" height="8" fill="#ff9d5c" opacity="0.47"/><rect x="983.1" y="357.7" width="156.5" height="153.6" fill="#08111a" opacity="0.85"/><rect x="991.1" y="369.7" width="5" height="8" fill="#ff9d5c" opacity="0.57"/><rect x="1009.1" y="369.7" width="5" height="8" fill="#ff9d5c" opacity="0.30"/><rect x="1027.1" y="369.7" width="5" height="8" fill="#ff9d5c" opacity="0.31"/><rect x="1045.1" y="395.7" width="5" height="8" fill="#7df9ff" opacity="0.29"/><rect x="1081.1" y="447.7" width="5" height="8" fill="#7df9ff" opacity="0.38"/><rect x="1163.7" y="147.9" width="122.2" height="363.4" fill="#08111a" opacity="0.85"/><rect x="1171.7" y="341.9" width="5" height="8" fill="#ff9d5c" opacity="0.69"/><rect x="1171.7" y="445.9" width="5" height="8" fill="#ff9d5c" opacity="0.63"/><rect x="1189.7" y="393.9" width="5" height="8" fill="#7df9ff" opacity="0.47"/><rect x="1207.7" y="445.9" width="5" height="8" fill="#7df9ff" opacity="0.70"/><rect x="1225.7" y="185.9" width="5" height="8" fill="#7df9ff" opacity="0.49"/><rect x="1225.7" y="211.9" width="5" height="8" fill="#7df9ff" opacity="0.81"/><rect x="1225.7" y="263.9" width="5" height="8" fill="#7df9ff" opacity="0.58"/><rect x="1225.7" y="289.9" width="5" height="8" fill="#7df9ff" opacity="0.59"/><rect x="1225.7" y="393.9" width="5" height="8" fill="#7df9ff" opacity="0.36"/><rect x="1261.7" y="185.9" width="5" height="8" fill="#ff9d5c" opacity="0.31"/><rect x="1309.5" y="241.7" width="126.9" height="269.6" fill="#08111a" opacity="0.85"/><rect x="1317.5" y="279.7" width="5" height="8" fill="#7df9ff" opacity="0.77"/><rect x="1317.5" y="305.7" width="5" height="8" fill="#7df9ff" opacity="0.70"/><rect x="1371.5" y="409.7" width="5" height="8" fill="#7df9ff" opacity="0.75"/><rect x="1389.5" y="305.7" width="5" height="8" fill="#7df9ff" opacity="0.50"/><rect x="1389.5" y="409.7" width="5" height="8" fill="#7df9ff" opacity="0.78"/><rect x="1407.5" y="357.7" width="5" height="8" fill="#7df9ff" opacity="0.61"/><rect x="1425.5" y="435.7" width="5" height="8" fill="#ff9d5c" opacity="0.77"/><rect x="0" y="465" width="1280" height="2" fill="#ff2d55" opacity="0.5"/><rect x="0" y="467" width="1280" height="253" fill="#05090f"/><rect x="196" y="706" width="630" height="2.4" fill="#ff2d55" opacity="0.12"/><rect x="469" y="703" width="201" height="2.0" fill="#00f0ff" opacity="0.16"/><rect x="76" y="556" width="102" height="1.2" fill="#ff2d55" opacity="0.14"/><rect x="1190" y="581" width="408" height="2.1" fill="#ff2d55" opacity="0.25"/><rect x="721" y="592" width="70" height="1.3" fill="#00f0ff" opacity="0.21"/><rect x="625" y="553" width="198" height="1.1" fill="#00f0ff" opacity="0.24"/><rect x="264" y="594" width="95" height="1.8" fill="#ff2d55" opacity="0.11"/><rect x="447" y="534" width="399" height="1.0" fill="#00f0ff" opacity="0.10"/><rect x="551" y="688" width="266" height="2.7" fill="#00f0ff" opacity="0.25"/><rect x="282" y="504" width="309" height="2.9" fill="#ff2d55" opacity="0.16"/><rect x="462" y="624" width="149" height="2.5" fill="#00f0ff" opacity="0.21"/><rect x="939" y="587" width="237" height="2.3" fill="#ff2d55" opacity="0.24"/><rect x="185" y="639" width="160" height="2.8" fill="#00f0ff" opacity="0.11"/><rect x="571" y="653" width="65" height="1.0" fill="#00f0ff" opacity="0.08"/><rect x="1240" y="701" width="577" height="1.5" fill="#ff2d55" opacity="0.14"/><rect x="686" y="605" width="326" height="1.1" fill="#00f0ff" opacity="0.16"/><rect x="155" y="550" width="634" height="2.1" fill="#00f0ff" opacity="0.05"/><rect x="866" y="672" width="313" height="1.3" fill="#00f0ff" opacity="0.12"/><rect x="878" y="572" width="272" height="2.9" fill="#ff2d55" opacity="0.07"/><rect x="1079" y="578" width="50" height="1.9" fill="#ff2d55" opacity="0.12"/><rect x="965" y="519" width="276" height="1.9" fill="#00f0ff" opacity="0.06"/><rect x="15" y="625" width="312" height="2.8" fill="#ff2d55" opacity="0.22"/><rect x="307" y="560" width="488" height="1.2" fill="#00f0ff" opacity="0.18"/><rect x="1278" y="576" width="168" height="2.9" fill="#00f0ff" opacity="0.24"/><rect x="867" y="592" width="463" height="1.2" fill="#00f0ff" opacity="0.12"/><rect x="1183" y="667" width="630" height="2.2" fill="#00f0ff" opacity="0.09"/><rect x="48" y="108" width="16" height="76" fill="#ff2d55" opacity="0.67" filter="url(#blurS)"/><rect x="335" y="146" width="8" height="175" fill="#ff2d55" opacity="0.60" filter="url(#blurS)"/><rect x="1017" y="305" width="13" height="88" fill="#ff2d55" opacity="0.45" filter="url(#blurS)"/><rect x="450" y="213" width="20" height="63" fill="#00f0ff" opacity="0.51" filter="url(#blurS)"/><rect x="1063" y="235" width="14" height="113" fill="#00f0ff" opacity="0.44" filter="url(#blurS)"/><g opacity="0.9" fill="#04070c">
    <ellipse cx="831" cy="350" rx="12.7" ry="15.0"/>
    <rect x="816.5" y="366.2" width="30.0" height="63.4" rx="9.2"/>
    <rect x="819.9" y="427.3" width="9.2" height="38.0"/>
    <rect x="833.7" y="427.3" width="9.2" height="38.0"/>
  </g><ellipse cx="831" cy="408" rx="46" ry="86" fill="#ff2d55" opacity="0.1" filter="url(#blur)"/><rect width="1280" height="720" fill="url(#vig)"/><rect width="1280" height="720" fill="url(#scan)" opacity="0.5"/><rect width="1280" height="720" filter="url(#grain)" opacity="0.14"/>
</svg>